<?xml version="1.0" encoding="UTF-8"?>
<!-- Generator: Adobe Illustrator 19.2.0, SVG Export Plug-In . SVG Version: 6.00 Build 0)  -->
<svg version="1.1" id="Layer_1" xmlns="http://www.w3.org/2000/svg" xmlns:xlink="http://www.w3.org/1999/xlink" x="0px" y="0px" width="70px" height="70px" viewBox="0 0 70 70" style="enable-background:new 0 0 70 70;" xml:space="preserve">
<style type="text/css">
	.st0{display:none;}
	.st1{display:inline;fill:#162438;}
	.st2{display:inline;fill:#FFFFFF;}
	.st3{fill:#FFFFFF;}
</style>
<g id="Background" class="st0">
	<rect x="-735" y="-1500" class="st1" width="2494" height="1500"/>
	<rect x="-735" y="-1500" class="st1" width="2494" height="2140"/>
</g>
<g id="background2" class="st0">
	<rect x="-765" y="-1501" class="st2" width="2526" height="2213"/>
</g>
<g id="Layer_4">
</g>
<g id="Icons">
</g>
<g>
	<path class="st3" d="M66.6,37.8C65,19.5,33.3,24,30.5,19.1c-2.9-5.4,19.7-8.9,19.7-8.9h-3.4c-10.4,0-28.3,1.6-32.1,7.2   c0,0-1.4,2.5,0.1,5.7c1.6,3.2,20,6.6,21.1,11.5c3,13-33.4,21.7-33.4,21.7l59.9,1.4C62.5,57.9,68.3,53.2,66.6,37.8z"/>
</g>
</svg>